<?xml version="1.0" standalone="no"?>
<!DOCTYPE svg PUBLIC "-//W3C//DTD SVG 20010904//EN"
 "http://www.w3.org/TR/2001/REC-SVG-20010904/DTD/svg10.dtd">
<svg version="1.0" xmlns="http://www.w3.org/2000/svg"
 width="500.000000pt" height="500.000000pt" viewBox="0 0 500.000000 500.000000"
 preserveAspectRatio="xMidYMid meet">

<g transform="translate(0.000000,500.000000) scale(0.100000,-0.100000)"
fill="#004aad" stroke="white">
<path d="M2315 4994 c-554 -56 -967 -219 -1380 -542 -104 -82 -340 -324 -422
-433 -243 -325 -395 -670 -469 -1069 -99 -538 -18 -1094 231 -1585 130 -257
281 -461 487 -661 203 -195 382 -321 643 -449 345 -170 679 -248 1070 -249
268 -1 475 28 713 100 903 272 1563 1011 1737 1942 44 234 50 563 15 802 -66
459 -235 851 -528 1225 -89 113 -309 324 -443 424 -426 319 -908 485 -1439
495 -96 2 -193 2 -215 0z m-1577 -2216 c-3 -129 -4 -133 -25 -136 -23 -3 -23
-3 -23 132 l0 136 25 0 26 0 -3 -132z m667 107 c0 -14 -8 -21 -27 -23 -24 -3
-28 0 -28 23 0 23 4 26 28 23 19 -2 27 -9 27 -23z m3325 -110 l0 -135 -25 0
-25 0 0 135 0 135 25 0 25 0 0 -135z m-1860 90 c0 -23 3 -25 51 -25 47 0 50
-2 47 -22 -3 -20 -10 -23 -50 -26 -45 -3 -48 -5 -48 -30 0 -61 9 -72 57 -72
40 0 44 -2 41 -22 -2 -18 -11 -24 -37 -26 -81 -8 -111 18 -111 94 0 51 -1 54
-25 54 -20 0 -25 5 -25 25 0 20 5 25 25 25 18 0 25 5 25 18 0 10 3 22 7 25 3
4 15 7 25 7 13 0 18 -7 18 -25z m1400 0 c0 -23 4 -25 46 -25 41 0 45 -2 42
-22 -2 -19 -10 -24 -46 -26 l-43 -3 3 -47 3 -47 43 -3 c38 -3 43 -6 40 -25 -3
-19 -10 -22 -50 -25 -40 -3 -52 1 -73 22 -20 20 -25 35 -25 76 0 47 -2 50 -25
50 -20 0 -25 5 -25 25 0 20 5 25 25 25 18 0 25 5 25 18 0 25 9 32 37 32 18 0
23 -5 23 -25z m-3912 -102 l-3 -118 -25 0 c-25 0 -25 0 -28 104 -1 58 0 111 2
118 3 7 17 13 31 13 l26 0 -3 -117z m1751 102 c49 -25 57 -90 16 -130 -22 -22
-32 -25 -104 -25 l-80 0 -3 -32 c-2 -28 -7 -33 -28 -33 l-25 0 -3 118 -3 117
101 0 c69 0 110 -5 129 -15z m-1536 -36 c16 -9 22 -9 25 0 2 6 17 11 33 11
l29 0 0 -79 c0 -43 -3 -92 -6 -110 -14 -69 -86 -101 -189 -84 -40 7 -51 13
-53 29 -3 20 0 21 67 16 55 -4 76 -1 96 12 29 19 36 52 8 38 -58 -30 -150 -19
-178 21 -8 12 -15 40 -15 62 0 66 34 94 113 95 27 0 58 -5 70 -11z m407 -4
c33 -17 50 -43 50 -74 0 -20 -6 -21 -105 -21 -103 0 -126 -8 -86 -30 30 -15
99 -12 131 6 35 21 65 13 51 -15 -25 -45 -128 -65 -196 -37 -40 17 -55 42 -55
94 0 38 23 72 60 85 31 11 122 6 150 -8z m326 -9 c8 -11 14 -23 14 -28 0 -12
-54 -10 -67 3 -13 13 -123 8 -123 -6 -1 -5 39 -15 87 -22 62 -8 91 -16 100
-29 18 -24 16 -38 -6 -65 -17 -21 -29 -24 -98 -27 -60 -2 -86 1 -113 15 -42
22 -55 63 -19 63 12 0 27 -7 33 -15 13 -18 93 -30 131 -21 49 12 19 30 -70 42
-64 9 -93 17 -102 30 -18 25 -17 31 13 60 24 25 30 26 115 22 76 -2 93 -6 105
-22z m99 -76 c0 -95 0 -95 -25 -95 -25 0 -25 1 -28 98 l-3 98 28 -3 28 -3 0
-95z m244 85 c34 -17 51 -59 51 -127 0 -54 -16 -69 -53 -49 -16 8 -32 8 -57 1
-82 -24 -160 2 -160 54 0 45 34 61 126 61 87 0 105 12 45 29 -21 6 -51 6 -83
-1 -44 -9 -50 -8 -59 9 -8 15 -5 20 13 28 37 14 146 12 177 -5z m741 0 c33
-17 50 -43 50 -74 0 -20 -6 -21 -105 -21 -58 0 -105 -4 -105 -8 0 -34 101 -44
150 -16 15 10 35 14 44 11 14 -6 14 -10 4 -27 -45 -71 -205 -64 -243 10 -26
50 0 113 55 133 31 11 122 6 150 -8z m130 0 c0 -18 8 -18 40 0 14 8 49 14 78
15 43 0 57 -5 77 -25 22 -21 25 -33 25 -100 0 -73 -1 -75 -25 -75 -24 0 -25 3
-25 60 0 78 -23 105 -78 95 -20 -4 -49 -13 -64 -21 -26 -13 -28 -19 -28 -74 0
-57 -1 -60 -25 -60 l-25 0 0 100 0 100 25 0 c16 0 25 -6 25 -15z m689 1 c27
-14 51 -53 51 -81 0 -12 -20 -15 -105 -15 -58 0 -105 -4 -105 -8 0 -33 107
-45 144 -17 27 20 58 19 54 -1 -9 -47 -112 -77 -182 -54 -87 28 -102 133 -25
176 32 18 133 18 168 0z m317 -19 c13 -16 24 -32 24 -38 0 -15 -42 -10 -63 9
-23 21 -106 23 -130 3 -20 -16 -22 -62 -5 -79 17 -17 113 -15 132 3 16 17 66
21 66 5 0 -5 -9 -19 -20 -30 -76 -76 -250 -36 -250 57 0 72 50 105 154 100 60
-2 71 -6 92 -30z m289 3 c22 -21 25 -31 23 -74 -2 -39 -8 -53 -29 -68 -52 -39
-163 -35 -205 7 -33 33 -34 103 -1 132 32 30 45 33 119 30 55 -2 72 -7 93 -27z
m301 6 c22 -31 17 -39 -18 -31 -51 11 -158 11 -158 0 0 -5 39 -15 87 -22 62
-8 91 -16 100 -29 18 -24 16 -38 -6 -65 -17 -21 -29 -24 -98 -27 -60 -2 -86 1
-113 15 -42 22 -55 63 -19 63 12 0 27 -7 33 -16 14 -18 123 -30 145 -16 25 18
2 29 -70 36 -39 4 -82 11 -94 16 -34 13 -38 48 -9 77 24 24 30 25 115 21 76
-2 93 -6 105 -22z m506 -4 c20 -19 23 -33 23 -95 0 -62 -2 -72 -19 -75 -10 -2
-22 2 -26 8 -6 10 -18 10 -53 1 -84 -21 -135 -12 -157 29 -15 28 3 65 39 80
19 7 56 11 96 8 68 -4 84 5 38 23 -19 8 -47 8 -86 2 -52 -8 -59 -7 -68 9 -7
13 -6 19 3 22 7 3 20 7 28 10 8 3 48 4 87 3 60 -2 77 -6 95 -25z m-3438 -211
c4 -5 1 -22 -5 -38 -17 -45 -109 -367 -105 -370 1 -2 21 10 43 26 28 20 50 49
68 88 31 65 58 98 97 119 63 33 148 2 148 -55 0 -56 -58 -101 -130 -101 -22 0
-40 -4 -40 -10 0 -21 41 -50 71 -50 61 0 97 27 146 112 61 107 103 150 140
146 25 -3 28 -7 30 -45 0 -23 8 -64 17 -90 8 -26 16 -61 18 -77 l3 -30 28 25
c19 16 38 51 56 104 22 66 31 81 50 83 40 6 43 -10 22 -96 -24 -93 -26 -132
-8 -132 29 0 69 59 95 141 23 71 31 85 51 87 40 6 44 -10 22 -96 -22 -84 -27
-132 -13 -132 16 0 60 56 93 120 47 90 99 142 136 138 25 -3 28 -7 29 -43 0
-22 8 -68 18 -103 9 -34 15 -66 11 -71 -3 -5 -1 -12 4 -15 12 -8 58 30 66 54
7 23 35 27 35 5 0 -25 -59 -83 -93 -91 -18 -3 -43 -15 -56 -25 -50 -40 -141
-10 -141 47 0 22 32 44 38 26 1 -5 9 -17 16 -27 35 -48 67 34 45 118 -6 26
-15 50 -20 53 -9 5 -31 -27 -90 -131 -37 -63 -90 -108 -124 -103 -11 2 -26 16
-34 32 -11 25 -16 27 -25 15 -21 -27 -60 -49 -90 -49 -34 0 -66 25 -66 51 0
20 4 21 -97 -31 -58 -29 -109 -24 -137 13 -15 21 -18 32 -10 44 17 27 33 26
44 -1 6 -16 17 -26 29 -26 15 0 20 10 26 46 7 51 -12 146 -29 141 -6 -2 -25
-28 -43 -58 -78 -135 -83 -140 -125 -159 -80 -36 -168 -21 -198 34 l-14 26
-30 -29 c-17 -16 -46 -38 -65 -49 -25 -15 -38 -34 -52 -74 -25 -72 -66 -108
-123 -108 -36 0 -48 5 -66 27 -39 50 3 119 91 148 54 18 47 4 104 213 20 74
39 140 41 147 3 8 -24 -2 -60 -21 -52 -28 -66 -40 -66 -58 0 -13 6 -29 14 -36
8 -6 12 -18 9 -26 -8 -22 -51 -16 -78 11 -53 52 -18 109 86 144 36 12 81 35
100 51 33 28 82 39 93 21z m1472 -14 c2 -7 -5 -39 -16 -71 -11 -33 -20 -61
-20 -63 0 -1 11 -3 24 -3 29 0 39 -12 30 -34 -4 -10 -18 -16 -39 -16 -34 0
-34 0 -50 -74 -9 -41 -14 -84 -10 -95 16 -53 94 2 135 95 33 73 73 105 140
112 59 5 90 -19 90 -71 0 -56 -53 -97 -126 -97 -37 0 -43 -13 -17 -42 36 -40
136 -10 171 52 18 31 42 40 42 17 0 -27 -60 -97 -102 -118 -55 -28 -137 -23
-173 11 -14 13 -25 31 -25 39 -1 12 -6 9 -21 -9 -48 -58 -112 -76 -156 -45
-30 21 -37 71 -24 151 9 46 9 70 1 79 -13 15 -3 45 15 45 10 0 41 69 61 138 5
16 63 16 70 -1z m-686 -39 c-1 -22 -48 -68 -70 -68 -26 0 -25 13 2 50 22 30
68 42 68 18z m1426 -124 c37 -18 39 -21 24 -44 -7 -12 -14 -12 -43 -2 -73 26
-124 7 -158 -59 -21 -42 -25 -94 -8 -105 17 -10 67 45 91 103 19 47 25 54 48
51 28 -3 28 -9 15 -105 -9 -64 3 -69 50 -19 22 24 39 58 55 115 23 77 25 81
53 81 20 0 30 -6 34 -20 5 -20 5 -20 33 0 40 29 100 25 100 -6 0 -20 18 -17
47 6 14 11 41 20 60 20 53 0 61 -31 35 -129 -26 -93 -26 -101 -8 -101 18 0 63
53 80 94 19 45 70 101 110 120 67 32 192 10 184 -32 -4 -18 -12 -18 -96 -6
-39 6 -47 3 -74 -22 -34 -32 -58 -81 -58 -118 0 -61 53 -34 93 47 15 31 27 61
27 66 0 14 43 14 57 0 8 -8 8 -24 -3 -58 -17 -55 -18 -91 -3 -91 13 0 68 56
85 85 8 14 15 17 23 10 17 -17 -50 -109 -94 -130 -47 -22 -85 -9 -85 29 0 23
-1 23 -34 -10 -23 -23 -43 -34 -63 -34 -34 0 -73 25 -73 47 0 14 -4 13 -22 -4
-32 -28 -62 -43 -90 -43 -51 0 -59 37 -32 146 22 86 9 103 -39 52 -25 -27 -37
-52 -47 -100 -7 -34 -17 -71 -22 -80 -11 -22 -56 -24 -64 -3 -4 8 4 56 16 106
28 111 18 133 -32 76 -23 -26 -38 -58 -53 -114 -17 -67 -23 -78 -43 -81 -28
-4 -53 14 -45 34 4 10 -8 6 -32 -10 -21 -14 -45 -26 -54 -26 -22 0 -41 19 -41
42 0 24 -2 23 -40 -12 -42 -40 -90 -41 -119 -4 -12 15 -21 36 -21 48 0 67 49
148 115 188 38 23 115 24 161 2z"/>
<path d="M1940 2790 l0 -40 44 0 c68 0 105 10 112 32 11 35 -13 48 -87 48
l-69 0 0 -40z"/>
<path d="M470 2788 c-59 -31 -24 -98 50 -98 65 0 106 56 65 90 -22 18 -87 22
-115 8z"/>
<path d="M844 2785 c-17 -13 -12 -14 56 -14 68 0 73 1 56 14 -11 8 -36 15 -56
15 -20 0 -45 -7 -56 -15z"/>
<path d="M1493 2719 c-17 -17 2 -39 34 -39 42 0 114 22 110 34 -5 16 -129 20
-144 5z"/>
<path d="M2250 2785 c-11 -13 -3 -15 61 -15 67 1 72 2 55 15 -26 20 -100 19
-116 0z"/>
<path d="M3064 2785 c-17 -13 -11 -14 61 -14 72 0 78 1 61 14 -11 8 -38 15
-61 15 -23 0 -50 -7 -61 -15z"/>
<path d="M3660 2788 c-32 -17 -40 -66 -14 -85 22 -16 116 -17 132 -1 17 17 15
63 -3 78 -22 18 -87 22 -115 8z"/>
<path d="M4444 2715 c-11 -27 7 -38 55 -32 25 3 59 11 76 17 43 16 15 30 -63
30 -46 0 -64 -4 -68 -15z"/>
<path d="M1306 2374 c-21 -21 -39 -54 -32 -61 8 -9 53 6 70 23 9 8 16 24 16
35 0 24 -32 26 -54 3z"/>
<path d="M918 2092 c-34 -31 -34 -62 1 -62 20 0 32 15 51 64 13 36 -10 35 -52
-2z"/>
<path d="M2813 2368 c-32 -37 -36 -58 -10 -58 34 0 67 28 67 56 0 31 -29 32
-57 2z"/>
</g>
</svg>
