<svg xmlns="http://www.w3.org/2000/svg" width="500" height="500" viewBox="0 0 500 500" version="1.1">
  <path d="M 69 222 L 69 235 71.500 235 L 74 235 74 222 L 74 209 71.500 209 L 69 209 69 222 M 135 211.500 C 135 213.500, 135.500 214, 137.500 214 C 139.500 214, 140 213.500, 140 211.500 C 140 209.500, 139.500 209, 137.500 209 C 135.500 209, 135 209.500, 135 211.500 M 468 222 L 468 235 470.500 235 L 473 235 473 222 L 473 209 470.500 209 L 468 209 468 222 M 282.667 211.667 C 282.300 212.033, 282 213.158, 282 214.167 C 282 215.456, 281.258 216, 279.500 216 C 277.667 216, 277 216.533, 277 218 C 277 219.467, 277.667 220, 279.500 220 C 281.866 220, 282 220.297, 282 225.545 C 282 230.100, 282.439 231.530, 284.455 233.545 C 288.294 237.385, 298.224 236.632, 296.684 232.618 C 296.245 231.474, 295.278 231.194, 293.202 231.610 C 289.032 232.444, 286.816 229.866, 287.199 224.627 L 287.500 220.500 292.250 220.195 C 296.184 219.943, 297 219.556, 297 217.945 C 297 216.278, 296.286 216, 292 216 C 287.333 216, 287 215.833, 287 213.500 C 287 211.742, 286.456 211, 285.167 211 C 284.158 211, 283.033 211.300, 282.667 211.667 M 422 213.500 C 421.333 215.256, 420.298 216, 418.525 216 C 414.807 216, 415.009 219.753, 418.750 220.184 C 421.374 220.485, 421.523 220.798, 422 226.976 C 422.437 232.633, 422.816 233.612, 425 234.711 C 429.605 237.031, 436 236.106, 436 233.120 C 436 231.848, 435.070 231.455, 432.061 231.455 C 429.894 231.455, 427.833 231.166, 427.480 230.813 C 427.127 230.460, 426.762 227.996, 426.669 225.336 L 426.500 220.500 431.250 220.195 C 435.134 219.946, 436 219.546, 436 218 C 436 216.454, 435.134 216.054, 431.250 215.805 C 427.197 215.545, 426.453 215.170, 426.180 213.250 C 425.752 210.235, 423.183 210.388, 422 213.500 M 31 223.430 L 31 235 33.533 235 L 36.066 235 35.783 223.750 C 35.511 212.943, 35.411 212.487, 33.250 212.180 C 31.028 211.865, 31 212.004, 31 223.430 M 188.750 212.583 C 188.338 212.996, 188 218.208, 188 224.167 C 188 234.977, 188.005 235, 190.434 235 C 192.345 235, 192.935 234.410, 193.184 232.250 C 193.497 229.525, 193.581 229.495, 202.342 229 C 210.103 228.561, 211.416 228.212, 213.092 226.139 C 215.848 222.729, 215.558 217.874, 212.422 214.924 C 210.104 212.745, 208.816 212.466, 199.672 212.166 C 194.077 211.983, 189.162 212.170, 188.750 212.583 M 42.077 218.589 C 39.497 220.759, 39 221.891, 39 225.589 C 39 230.473, 41.175 233.504, 45.451 234.577 C 48.315 235.296, 55.658 234.714, 58.250 233.563 C 60.697 232.477, 60.556 235.187, 58.048 237.457 C 56.451 238.902, 54.721 239.154, 48.548 238.842 C 41.944 238.509, 41 238.675, 41 240.172 C 41 242.691, 42.078 243.022, 50.564 243.109 C 62.798 243.235, 65.836 239.603, 65.944 224.719 C 66.005 216.314, 64.770 214.413, 60.845 216.865 C 59.515 217.695, 58.387 217.742, 57.043 217.023 C 55.992 216.460, 52.886 216, 50.142 216 C 46.234 216, 44.487 216.561, 42.077 218.589 M 81.775 217.559 C 76.273 220.545, 75.132 228.364, 79.595 232.501 C 84.519 237.064, 96.461 236.626, 101.065 231.713 L 103.139 229.500 100.509 229.178 C 99.063 229.001, 97.193 229.425, 96.355 230.120 C 93.093 232.828, 82 231.095, 82 227.878 C 82 227.395, 86.725 227, 92.500 227 C 102.445 227, 103 226.891, 103 224.934 C 103 219.409, 97.909 215.979, 89.800 216.040 C 86.885 216.062, 83.274 216.746, 81.775 217.559 M 110 217.288 C 108.456 218.065, 107.381 219.566, 107.190 221.211 C 106.747 225.008, 109.974 226.694, 119.300 227.538 C 125.744 228.122, 127.046 228.527, 126.790 229.872 C 126.352 232.180, 116.983 232.637, 112.807 230.554 C 108.882 228.595, 106 228.563, 106 230.477 C 106 232.978, 110.421 235.021, 117.204 235.655 C 127.659 236.631, 133.725 233.488, 132.252 227.856 C 131.648 225.546, 129.886 224.904, 120.580 223.605 C 110.130 222.147, 109.105 220, 118.858 220 C 122.721 220, 126.160 220.450, 126.500 221 C 127.213 222.154, 132.008 222.373, 131.985 221.250 C 131.957 219.903, 130.542 218.321, 128.316 217.150 C 125.402 215.616, 113.138 215.708, 110 217.288 M 135 225.500 C 135 234.967, 135.009 235, 137.500 235 C 139.991 235, 140 234.967, 140 225.500 C 140 216.033, 139.991 216, 137.500 216 C 135.009 216, 135 216.033, 135 225.500 M 148.191 216.850 C 146.921 217.207, 145.909 217.838, 145.941 218.250 C 145.973 218.662, 146 219.486, 146 220.080 C 146 220.808, 148.035 220.944, 152.250 220.499 C 158.373 219.852, 164 220.974, 164 222.842 C 164 223.332, 160.933 223.514, 157.185 223.245 C 146.498 222.481, 140.630 226.733, 144.410 232.502 C 146.569 235.799, 151.870 236.644, 158.614 234.766 C 161.576 233.942, 164 233.657, 164 234.134 C 164 234.610, 165.350 235, 167 235 C 169.864 235, 170 234.807, 169.994 230.750 C 169.985 223.771, 168.257 219.184, 165.003 217.502 C 162.060 215.980, 152.584 215.612, 148.191 216.850 M 221.898 218.283 C 218.949 220.264, 218.460 221.190, 218.195 225.280 C 217.935 229.307, 218.277 230.352, 220.541 232.450 C 225.649 237.185, 237.132 236.682, 241.989 231.511 L 244.349 229 241.796 229 C 240.393 229, 237.568 229.701, 235.519 230.557 C 231.734 232.138, 226.764 231.787, 224.250 229.762 C 221.526 227.568, 223.428 227, 233.500 227 C 244.887 227, 245.231 226.795, 242.805 221.472 C 241.153 217.845, 237.070 216, 230.698 216 C 226.731 216, 224.393 216.607, 221.898 218.283 M 247 225.500 C 247 234.967, 247.009 235, 249.500 235 C 251.866 235, 252 234.703, 252 229.451 L 252 223.902 256.250 221.973 C 264.906 218.044, 269 220.460, 269 229.500 C 269 234.761, 269.113 235, 271.609 235 L 274.219 235 273.836 227.425 C 273.501 220.781, 273.150 219.617, 270.977 217.948 C 267.942 215.615, 261.340 215.413, 256.346 217.500 C 254.371 218.325, 252.586 219, 252.378 219 C 252.170 219, 252 218.325, 252 217.500 C 252 216.567, 251.056 216, 249.500 216 C 247.009 216, 247 216.033, 247 225.500 M 304.253 217.591 C 298.012 220.774, 297.681 229.779, 303.661 233.698 C 307.687 236.336, 317.932 236.188, 321.614 233.439 C 327.242 229.237, 324.796 227.516, 317.519 230.557 C 313.734 232.138, 308.764 231.787, 306.250 229.762 C 303.522 227.565, 305.435 227, 315.608 227 L 326.217 227 325.547 224.250 C 324.277 219.034, 320.738 216.634, 313.776 216.266 C 309.365 216.033, 306.535 216.427, 304.253 217.591 M 334.500 216.945 C 328.771 219.290, 326.515 227.596, 330.432 231.924 C 332.945 234.702, 339.357 236.323, 344.674 235.526 C 348.748 234.915, 355 230.910, 355 228.911 C 355 227.428, 351.127 227.871, 348.386 229.667 C 345.116 231.809, 337.433 231.862, 335.327 229.756 C 333.540 227.968, 333.228 223.372, 334.788 221.812 C 335.359 221.241, 337.921 220.538, 340.481 220.249 C 344.209 219.829, 345.712 220.150, 348.028 221.862 C 350.672 223.818, 355 224.793, 355 223.434 C 355 221.718, 352.573 218.831, 350.020 217.510 C 346.920 215.907, 337.843 215.577, 334.500 216.945 M 362.775 217.559 C 357.294 220.533, 356.132 228.364, 360.563 232.470 C 365.415 236.967, 376.614 236.940, 381.492 232.420 C 383.721 230.354, 384.064 229.294, 383.805 225.280 C 383.540 221.190, 383.051 220.264, 380.102 218.283 C 376.065 215.571, 367.127 215.197, 362.775 217.559 M 391 217.288 C 389.456 218.065, 388.381 219.566, 388.190 221.211 C 387.748 224.998, 390.951 226.657, 400.306 227.488 C 406.825 228.067, 408.060 228.455, 407.797 229.841 C 407.352 232.180, 398.020 232.655, 393.807 230.554 C 389.882 228.595, 387 228.563, 387 230.477 C 387 234.809, 402.116 237.659, 409.250 234.672 C 412.810 233.182, 413.556 231.867, 413.035 228 C 412.680 225.369, 411.419 224.856, 402.366 223.666 C 397.490 223.025, 393.500 222.050, 393.500 221.500 C 393.500 220.132, 406.033 219.633, 407.348 220.948 C 408.547 222.147, 413.008 222.386, 412.985 221.250 C 412.957 219.903, 411.542 218.321, 409.316 217.150 C 406.402 215.616, 394.138 215.708, 391 217.288 M 443.191 216.850 C 441.921 217.207, 440.909 217.838, 440.941 218.250 C 440.973 218.662, 441 219.469, 441 220.042 C 441 220.729, 443.470 220.860, 448.250 220.427 C 454.647 219.849, 455.794 220.012, 458 221.816 L 460.500 223.861 452.950 223.301 C 447.014 222.861, 444.704 223.102, 442.143 224.426 C 439.246 225.924, 438.920 226.516, 439.193 229.782 C 439.602 234.672, 442.607 236.290, 449.855 235.524 C 452.800 235.213, 456.154 234.453, 457.307 233.836 C 458.867 233.001, 459.502 233.006, 459.786 233.857 C 459.995 234.485, 461.254 235, 462.583 235 C 464.771 235, 465 234.585, 465 230.625 C 465 219.246, 461.924 215.937, 451.500 216.103 C 448.200 216.156, 444.461 216.492, 443.191 216.850 M 193.190 220.750 L 193.500 224.500 199.728 224.797 C 206.540 225.122, 210 223.899, 210 221.165 C 210 217.931, 207.819 217, 200.240 217 L 192.879 217 193.190 220.750 M 46.223 221.557 C 41.206 225.071, 44.767 231, 51.894 231 C 57.910 231, 60 229.614, 60 225.625 C 60 223.055, 59.434 222.063, 57.453 221.161 C 53.891 219.537, 48.852 219.715, 46.223 221.557 M 83.387 221.750 C 81.714 223.417, 81.976 223.514, 88.936 223.796 C 96.956 224.121, 98.497 223.568, 95.557 221.418 C 92.796 219.399, 85.548 219.596, 83.387 221.750 M 224.729 221.092 C 223.755 221.659, 223.219 222.545, 223.538 223.061 C 224.306 224.303, 238 224.279, 238 223.035 C 238 220.331, 228.440 218.931, 224.729 221.092 M 306.750 221.080 C 303.310 223.084, 305.114 224, 312.500 224 C 316.651 224, 320 223.569, 320 223.035 C 320 220.340, 310.443 218.929, 306.750 221.080 M 365.223 221.557 C 362.586 223.403, 362.233 228.118, 364.584 230.070 C 365.455 230.793, 368.343 231.385, 371 231.385 C 376.693 231.385, 379 229.813, 379 225.934 C 379 222.384, 375.786 220, 371 220 C 369.045 220, 366.445 220.701, 365.223 221.557 M 152.500 226.777 C 146.926 227.998, 147.596 232.005, 153.372 231.994 C 160.066 231.982, 166.797 228.795, 162.750 227.554 C 160.256 226.789, 154.453 226.349, 152.500 226.777 M 447.500 226.932 C 445.369 227.349, 444.500 228.096, 444.500 229.510 C 444.500 231.270, 445.142 231.488, 450.040 231.398 C 456.137 231.285, 461.345 229.299, 458.910 228.015 C 456.695 226.847, 450.791 226.286, 447.500 226.932 M 110.075 241.420 C 108.775 242.803, 104.515 245.120, 100.606 246.568 C 93.235 249.299, 88 253.592, 88 256.905 C 88 261.368, 96.215 266.209, 97.612 262.569 C 97.964 261.651, 97.516 260.122, 96.597 259.107 C 94.124 256.374, 95.536 254.380, 102.602 250.628 C 106.121 248.760, 108.995 247.291, 108.989 247.365 C 108.983 247.439, 106.808 255.325, 104.156 264.889 L 99.334 282.278 93.313 285.011 C 86.556 288.078, 84 290.975, 84 295.568 C 84 299.769, 86.696 302, 91.773 302 C 97.222 302, 100.399 299.142, 103.444 291.500 C 105.304 286.834, 106.657 285.026, 109.529 283.366 C 111.561 282.192, 114.380 280.075, 115.794 278.660 L 118.365 276.089 121.433 279.589 C 129.077 288.309, 143.040 283.849, 149.690 270.563 C 151.083 267.779, 153.388 263.950, 154.812 262.054 L 157.400 258.609 159.152 265.552 C 160.262 269.949, 160.555 272.845, 159.952 273.448 C 159.429 273.971, 159 275.435, 159 276.700 C 159 279.961, 155.259 279.811, 154 276.500 C 152.930 273.685, 151.781 273.355, 150.101 275.378 C 148.605 277.181, 150.196 281.499, 152.886 282.939 C 155.985 284.597, 160.488 284.190, 163.273 282 C 164.671 280.900, 166.419 279.984, 167.158 279.965 C 167.896 279.945, 169.595 279.322, 170.934 278.581 C 173.215 277.318, 173.466 277.430, 174.934 280.366 C 176.338 283.175, 176.945 283.491, 180.786 283.411 C 184.229 283.340, 185.754 282.662, 188.536 279.965 L 192 276.608 192 279.325 C 192 281.232, 192.724 282.373, 194.426 283.148 C 199.108 285.281, 204.251 280.404, 211.455 267 C 214.502 261.329, 216.906 258.557, 217.410 260.133 C 219.804 267.611, 220.104 269.609, 219.495 274.035 C 218.893 278.411, 218.529 279, 216.425 279 C 214.713 279, 213.861 278.293, 213.411 276.500 C 212.713 273.720, 211.978 273.422, 210.200 275.200 C 208.384 277.016, 208.744 278.835, 211.455 281.545 C 214.514 284.605, 219.708 284.804, 223.273 282 C 224.671 280.900, 226.419 279.998, 227.158 279.996 C 231.583 279.984, 239.632 271.127, 236.805 269.380 C 236.136 268.966, 235.412 269.264, 235.146 270.063 C 234.500 272, 229.405 277, 228.077 277 C 227.485 277, 227 275.382, 227 273.404 C 227 271.426, 226.282 267.339, 225.405 264.321 C 224.528 261.304, 224.031 257.988, 224.302 256.954 C 224.961 254.434, 222.590 252.635, 219.599 253.386 C 216.614 254.135, 212.589 259.156, 207.082 269 C 203.142 276.044, 200.696 279, 198.809 279 C 197.380 279, 197.943 272.667, 200.046 265.076 C 202.226 257.211, 201.843 255.596, 197.935 256.165 C 196.025 256.444, 195.191 257.880, 192.974 264.712 C 190.362 272.758, 189.015 275.269, 186 277.718 C 181.526 281.352, 180.818 276.838, 184.054 265.306 C 185.184 261.280, 185.833 257.538, 185.495 256.992 C 185.158 256.447, 183.774 256, 182.420 256 C 179.727 256, 179.204 256.897, 176.420 266.286 C 175.254 270.214, 173.708 272.910, 171.602 274.683 C 168.740 277.093, 168.476 277.148, 168.189 275.398 C 168.019 274.354, 167.025 270.099, 165.983 265.943 C 164.940 261.787, 164.331 257.450, 164.630 256.306 C 165.881 251.524, 159.837 252.224, 154.927 257.430 C 153.146 259.319, 150.024 263.932, 147.989 267.682 C 143.753 275.492, 139.439 279, 134.075 279 C 129.911 279, 126 276.672, 126 274.193 C 126 272.831, 126.964 272.500, 130.927 272.500 C 134.371 272.500, 136.703 271.868, 138.677 270.398 C 146.891 264.282, 141.985 254.467, 131.681 256.400 C 126.570 257.359, 122.239 261.403, 119.366 267.898 C 118.009 270.968, 115.908 274.540, 114.699 275.835 C 112.622 278.060, 107 281.552, 107 280.618 C 107 280.380, 109.472 271.602, 112.494 261.111 C 115.515 250.621, 118.103 241.466, 118.244 240.769 C 118.396 240.013, 117.274 239.380, 115.469 239.203 C 113.274 238.988, 111.785 239.600, 110.075 241.420 M 256.952 246.750 C 255.621 250.816, 253.699 254.408, 252.121 255.782 C 249.844 257.765, 249.703 258.207, 251.046 259.149 C 252.420 260.112, 252.437 261.009, 251.197 267.180 C 249.557 275.344, 250.233 280.349, 253.262 282.471 C 257.390 285.362, 261.920 284.200, 267.651 278.780 C 270.753 275.846, 270.812 275.834, 271.490 277.969 C 273.247 283.503, 282.950 285.568, 290.688 282.055 C 294.788 280.193, 301 273.142, 301 270.350 C 301 268.075, 299.777 268.808, 295.539 273.624 C 291.922 277.735, 290.916 278.299, 286.485 278.704 C 281.137 279.192, 278.383 277.908, 277.819 274.664 C 277.550 273.119, 278.248 272.796, 282.229 272.625 C 289.960 272.292, 295.187 266.867, 293.656 260.767 C 292.863 257.606, 288.164 255.549, 283.474 256.311 C 277.958 257.206, 274.070 260.665, 271.015 267.394 C 267.689 274.721, 263.215 279.309, 259.858 278.834 C 256.725 278.390, 256.407 275.542, 258.525 266.899 C 260.188 260.110, 260.268 260, 263.501 260 C 265.581 260, 267.010 259.417, 267.396 258.410 C 268.263 256.152, 267.265 255, 264.441 255 C 261.490 255, 261.480 254.825, 264.010 247.472 C 266.169 241.197, 265.756 240.047, 261.332 240.015 C 259.535 240.003, 258.783 241.159, 256.952 246.750 M 190.250 247.319 C 187.527 251.318, 187.463 252, 189.813 252 C 191.812 252, 197 247.088, 197 245.195 C 197 242.630, 192.472 244.055, 190.250 247.319 M 324.200 257.615 C 316.676 261.452, 310.664 272.481, 312.722 278.674 C 314.793 284.908, 321.882 285.479, 327.152 279.837 L 330 276.788 330 279.359 C 330 284.288, 336.252 284.797, 341.248 280.275 C 342.864 278.813, 343 278.852, 343 280.786 C 343 283.407, 344.457 284.353, 347.367 283.623 C 349.232 283.155, 349.928 281.753, 351.402 275.503 C 352.776 269.676, 353.969 267.115, 356.621 264.304 C 361.953 258.649, 362.826 260.766, 360 272.500 C 357.489 282.925, 357.876 284.750, 362.359 283.625 C 364.545 283.076, 365.080 282.028, 366.556 275.391 C 368.274 267.669, 372.467 261, 375.604 261 C 377.375 261, 377.351 263.105, 375.500 270 C 373.269 278.313, 373.516 281.822, 376.426 283.148 C 379.605 284.597, 382.982 283.672, 386.531 280.384 C 388.475 278.582, 389.543 278.129, 389.828 278.984 C 390.594 281.282, 393.966 284, 396.050 284 C 399.087 284, 403.772 281.292, 405.149 278.740 C 406.339 276.534, 406.370 276.548, 407.191 279.686 C 408.211 283.587, 410.920 284.610, 414.850 282.578 C 418.587 280.645, 425 273.216, 425 270.820 C 425 268.304, 423.307 268.540, 421.913 271.250 C 420.171 274.637, 415.816 279, 414.177 279 C 413.007 279, 412.877 278.086, 413.500 274.250 C 414.929 265.459, 414.725 263.532, 412.329 263.191 C 410.540 262.936, 409.625 264, 407.120 269.249 C 403.722 276.369, 400.833 279.534, 398.537 278.653 C 394.918 277.264, 398.011 267.045, 403.344 262.772 C 405.853 260.762, 411.766 260.481, 415.525 262.193 C 417.660 263.166, 418.312 263.120, 419.056 261.943 C 420.462 259.721, 420.249 259.346, 416.599 257.614 C 409.849 254.411, 400.614 256.385, 395.363 262.153 C 394.187 263.444, 392.225 266.525, 391.003 269 C 387.121 276.858, 381 281.831, 381 277.126 C 381 276.095, 381.617 273.501, 382.372 271.363 C 384.912 264.163, 385.298 259.441, 383.493 257.636 C 381.065 255.208, 376.592 255.631, 373.034 258.624 C 371.319 260.068, 369.822 261.080, 369.708 260.874 C 369.593 260.668, 369.004 259.600, 368.398 258.500 C 366.895 255.772, 363.266 255.434, 360.114 257.727 C 355.695 260.941, 355.348 261.013, 355.426 258.700 C 355.486 256.920, 354.944 256.500, 352.588 256.500 C 349.823 256.500, 349.542 256.914, 347.040 264.698 C 344.431 272.810, 342.298 276.235, 338.634 278.196 C 335.660 279.788, 335.092 277.521, 336.783 270.809 C 338.075 265.681, 338.092 264.672, 336.898 263.916 C 333.901 262.018, 332.346 263.052, 330.121 268.422 C 327.633 274.425, 323.925 279, 321.548 279 C 319.442 279, 319.488 272.881, 321.627 268.374 C 324.848 261.585, 330.259 259.518, 337.734 262.221 C 340.554 263.241, 341.259 263.199, 342.022 261.971 C 344.835 257.436, 331.124 254.086, 324.200 257.615 M 129.452 263.646 C 126.298 267.049, 126.316 269, 129.500 269 C 132.503 269, 136 265.772, 136 263 C 136 260.092, 132.418 260.446, 129.452 263.646 M 280.633 264.025 C 277.376 267.895, 277.322 269, 280.389 269 C 285.359 269, 289.937 261.848, 285.383 261.198 C 284.001 261.001, 282.351 261.983, 280.633 264.025 M 92.077 290.589 C 88.791 293.354, 88.306 294.906, 90.153 296.753 C 91.882 298.482, 94.912 296.456, 96.585 292.452 C 97.363 290.589, 98 288.825, 98 288.532 C 98 287.160, 94.852 288.253, 92.077 290.589" stroke="none" fill="#e9eef3" fill-rule="evenodd"/><path d="M 218.004 1.516 C 162.570 8.924, 114.209 32.418, 74.976 71 C 53.448 92.171, 39.150 111.860, 25.959 138.500 C 8.499 173.760, 0 210.265, 0 250 C -0 305.556, 17.230 357.083, 50.828 402 C 60.097 414.392, 79.874 434.885, 92.029 444.692 C 125.631 471.804, 169.031 490.981, 212 497.701 C 228.273 500.246, 268.727 500.246, 285 497.701 C 343.970 488.478, 400.066 457.191, 437.669 412.551 C 455.643 391.213, 472.507 362.119, 481.944 336.166 C 487.020 322.208, 492.342 301.269, 494.695 286 C 497.198 269.754, 497.191 230.160, 494.681 214 C 483.644 142.940, 446.049 82.713, 388 43.099 C 356.596 21.669, 323.314 8.407, 286 2.454 C 271.569 0.151, 232.272 -0.391, 218.004 1.516 M 69 222 L 69 235 71.500 235 L 74 235 74 222 L 74 209 71.500 209 L 69 209 69 222 M 135 211.500 C 135 213.500, 135.500 214, 137.500 214 C 139.500 214, 140 213.500, 140 211.500 C 140 209.500, 139.500 209, 137.500 209 C 135.500 209, 135 209.500, 135 211.500 M 468 222 L 468 235 470.500 235 L 473 235 473 222 L 473 209 470.500 209 L 468 209 468 222 M 282.667 211.667 C 282.300 212.033, 282 213.158, 282 214.167 C 282 215.456, 281.258 216, 279.500 216 C 277.667 216, 277 216.533, 277 218 C 277 219.467, 277.667 220, 279.500 220 C 281.866 220, 282 220.297, 282 225.545 C 282 230.100, 282.439 231.530, 284.455 233.545 C 288.294 237.385, 298.224 236.632, 296.684 232.618 C 296.245 231.474, 295.278 231.194, 293.202 231.610 C 289.032 232.444, 286.816 229.866, 287.199 224.627 L 287.500 220.500 292.250 220.195 C 296.184 219.943, 297 219.556, 297 217.945 C 297 216.278, 296.286 216, 292 216 C 287.333 216, 287 215.833, 287 213.500 C 287 211.742, 286.456 211, 285.167 211 C 284.158 211, 283.033 211.300, 282.667 211.667 M 422 213.500 C 421.333 215.256, 420.298 216, 418.525 216 C 414.807 216, 415.009 219.753, 418.750 220.184 C 421.374 220.485, 421.523 220.798, 422 226.976 C 422.437 232.633, 422.816 233.612, 425 234.711 C 429.605 237.031, 436 236.106, 436 233.120 C 436 231.848, 435.070 231.455, 432.061 231.455 C 429.894 231.455, 427.833 231.166, 427.480 230.813 C 427.127 230.460, 426.762 227.996, 426.669 225.336 L 426.500 220.500 431.250 220.195 C 435.134 219.946, 436 219.546, 436 218 C 436 216.454, 435.134 216.054, 431.250 215.805 C 427.197 215.545, 426.453 215.170, 426.180 213.250 C 425.752 210.235, 423.183 210.388, 422 213.500 M 31 223.430 L 31 235 33.533 235 L 36.066 235 35.783 223.750 C 35.511 212.943, 35.411 212.487, 33.250 212.180 C 31.028 211.865, 31 212.004, 31 223.430 M 188.750 212.583 C 188.338 212.996, 188 218.208, 188 224.167 C 188 234.977, 188.005 235, 190.434 235 C 192.345 235, 192.935 234.410, 193.184 232.250 C 193.497 229.525, 193.581 229.495, 202.342 229 C 210.103 228.561, 211.416 228.212, 213.092 226.139 C 215.848 222.729, 215.558 217.874, 212.422 214.924 C 210.104 212.745, 208.816 212.466, 199.672 212.166 C 194.077 211.983, 189.162 212.170, 188.750 212.583 M 42.077 218.589 C 39.497 220.759, 39 221.891, 39 225.589 C 39 230.473, 41.175 233.504, 45.451 234.577 C 48.315 235.296, 55.658 234.714, 58.250 233.563 C 60.697 232.477, 60.556 235.187, 58.048 237.457 C 56.451 238.902, 54.721 239.154, 48.548 238.842 C 41.944 238.509, 41 238.675, 41 240.172 C 41 242.691, 42.078 243.022, 50.564 243.109 C 62.798 243.235, 65.836 239.603, 65.944 224.719 C 66.005 216.314, 64.770 214.413, 60.845 216.865 C 59.515 217.695, 58.387 217.742, 57.043 217.023 C 55.992 216.460, 52.886 216, 50.142 216 C 46.234 216, 44.487 216.561, 42.077 218.589 M 81.775 217.559 C 76.273 220.545, 75.132 228.364, 79.595 232.501 C 84.519 237.064, 96.461 236.626, 101.065 231.713 L 103.139 229.500 100.509 229.178 C 99.063 229.001, 97.193 229.425, 96.355 230.120 C 93.093 232.828, 82 231.095, 82 227.878 C 82 227.395, 86.725 227, 92.500 227 C 102.445 227, 103 226.891, 103 224.934 C 103 219.409, 97.909 215.979, 89.800 216.040 C 86.885 216.062, 83.274 216.746, 81.775 217.559 M 110 217.288 C 108.456 218.065, 107.381 219.566, 107.190 221.211 C 106.747 225.008, 109.974 226.694, 119.300 227.538 C 125.744 228.122, 127.046 228.527, 126.790 229.872 C 126.352 232.180, 116.983 232.637, 112.807 230.554 C 108.882 228.595, 106 228.563, 106 230.477 C 106 232.978, 110.421 235.021, 117.204 235.655 C 127.659 236.631, 133.725 233.488, 132.252 227.856 C 131.648 225.546, 129.886 224.904, 120.580 223.605 C 110.130 222.147, 109.105 220, 118.858 220 C 122.721 220, 126.160 220.450, 126.500 221 C 127.213 222.154, 132.008 222.373, 131.985 221.250 C 131.957 219.903, 130.542 218.321, 128.316 217.150 C 125.402 215.616, 113.138 215.708, 110 217.288 M 135 225.500 C 135 234.967, 135.009 235, 137.500 235 C 139.991 235, 140 234.967, 140 225.500 C 140 216.033, 139.991 216, 137.500 216 C 135.009 216, 135 216.033, 135 225.500 M 148.191 216.850 C 146.921 217.207, 145.909 217.838, 145.941 218.250 C 145.973 218.662, 146 219.486, 146 220.080 C 146 220.808, 148.035 220.944, 152.250 220.499 C 158.373 219.852, 164 220.974, 164 222.842 C 164 223.332, 160.933 223.514, 157.185 223.245 C 146.498 222.481, 140.630 226.733, 144.410 232.502 C 146.569 235.799, 151.870 236.644, 158.614 234.766 C 161.576 233.942, 164 233.657, 164 234.134 C 164 234.610, 165.350 235, 167 235 C 169.864 235, 170 234.807, 169.994 230.750 C 169.985 223.771, 168.257 219.184, 165.003 217.502 C 162.060 215.980, 152.584 215.612, 148.191 216.850 M 221.898 218.283 C 218.949 220.264, 218.460 221.190, 218.195 225.280 C 217.935 229.307, 218.277 230.352, 220.541 232.450 C 225.649 237.185, 237.132 236.682, 241.989 231.511 L 244.349 229 241.796 229 C 240.393 229, 237.568 229.701, 235.519 230.557 C 231.734 232.138, 226.764 231.787, 224.250 229.762 C 221.526 227.568, 223.428 227, 233.500 227 C 244.887 227, 245.231 226.795, 242.805 221.472 C 241.153 217.845, 237.070 216, 230.698 216 C 226.731 216, 224.393 216.607, 221.898 218.283 M 247 225.500 C 247 234.967, 247.009 235, 249.500 235 C 251.866 235, 252 234.703, 252 229.451 L 252 223.902 256.250 221.973 C 264.906 218.044, 269 220.460, 269 229.500 C 269 234.761, 269.113 235, 271.609 235 L 274.219 235 273.836 227.425 C 273.501 220.781, 273.150 219.617, 270.977 217.948 C 267.942 215.615, 261.340 215.413, 256.346 217.500 C 254.371 218.325, 252.586 219, 252.378 219 C 252.170 219, 252 218.325, 252 217.500 C 252 216.567, 251.056 216, 249.500 216 C 247.009 216, 247 216.033, 247 225.500 M 304.253 217.591 C 298.012 220.774, 297.681 229.779, 303.661 233.698 C 307.687 236.336, 317.932 236.188, 321.614 233.439 C 327.242 229.237, 324.796 227.516, 317.519 230.557 C 313.734 232.138, 308.764 231.787, 306.250 229.762 C 303.522 227.565, 305.435 227, 315.608 227 L 326.217 227 325.547 224.250 C 324.277 219.034, 320.738 216.634, 313.776 216.266 C 309.365 216.033, 306.535 216.427, 304.253 217.591 M 334.500 216.945 C 328.771 219.290, 326.515 227.596, 330.432 231.924 C 332.945 234.702, 339.357 236.323, 344.674 235.526 C 348.748 234.915, 355 230.910, 355 228.911 C 355 227.428, 351.127 227.871, 348.386 229.667 C 345.116 231.809, 337.433 231.862, 335.327 229.756 C 333.540 227.968, 333.228 223.372, 334.788 221.812 C 335.359 221.241, 337.921 220.538, 340.481 220.249 C 344.209 219.829, 345.712 220.150, 348.028 221.862 C 350.672 223.818, 355 224.793, 355 223.434 C 355 221.718, 352.573 218.831, 350.020 217.510 C 346.920 215.907, 337.843 215.577, 334.500 216.945 M 362.775 217.559 C 357.294 220.533, 356.132 228.364, 360.563 232.470 C 365.415 236.967, 376.614 236.940, 381.492 232.420 C 383.721 230.354, 384.064 229.294, 383.805 225.280 C 383.540 221.190, 383.051 220.264, 380.102 218.283 C 376.065 215.571, 367.127 215.197, 362.775 217.559 M 391 217.288 C 389.456 218.065, 388.381 219.566, 388.190 221.211 C 387.748 224.998, 390.951 226.657, 400.306 227.488 C 406.825 228.067, 408.060 228.455, 407.797 229.841 C 407.352 232.180, 398.020 232.655, 393.807 230.554 C 389.882 228.595, 387 228.563, 387 230.477 C 387 234.809, 402.116 237.659, 409.250 234.672 C 412.810 233.182, 413.556 231.867, 413.035 228 C 412.680 225.369, 411.419 224.856, 402.366 223.666 C 397.490 223.025, 393.500 222.050, 393.500 221.500 C 393.500 220.132, 406.033 219.633, 407.348 220.948 C 408.547 222.147, 413.008 222.386, 412.985 221.250 C 412.957 219.903, 411.542 218.321, 409.316 217.150 C 406.402 215.616, 394.138 215.708, 391 217.288 M 443.191 216.850 C 441.921 217.207, 440.909 217.838, 440.941 218.250 C 440.973 218.662, 441 219.469, 441 220.042 C 441 220.729, 443.470 220.860, 448.250 220.427 C 454.647 219.849, 455.794 220.012, 458 221.816 L 460.500 223.861 452.950 223.301 C 447.014 222.861, 444.704 223.102, 442.143 224.426 C 439.246 225.924, 438.920 226.516, 439.193 229.782 C 439.602 234.672, 442.607 236.290, 449.855 235.524 C 452.800 235.213, 456.154 234.453, 457.307 233.836 C 458.867 233.001, 459.502 233.006, 459.786 233.857 C 459.995 234.485, 461.254 235, 462.583 235 C 464.771 235, 465 234.585, 465 230.625 C 465 219.246, 461.924 215.937, 451.500 216.103 C 448.200 216.156, 444.461 216.492, 443.191 216.850 M 193.190 220.750 L 193.500 224.500 199.728 224.797 C 206.540 225.122, 210 223.899, 210 221.165 C 210 217.931, 207.819 217, 200.240 217 L 192.879 217 193.190 220.750 M 46.223 221.557 C 41.206 225.071, 44.767 231, 51.894 231 C 57.910 231, 60 229.614, 60 225.625 C 60 223.055, 59.434 222.063, 57.453 221.161 C 53.891 219.537, 48.852 219.715, 46.223 221.557 M 83.387 221.750 C 81.714 223.417, 81.976 223.514, 88.936 223.796 C 96.956 224.121, 98.497 223.568, 95.557 221.418 C 92.796 219.399, 85.548 219.596, 83.387 221.750 M 224.729 221.092 C 223.755 221.659, 223.219 222.545, 223.538 223.061 C 224.306 224.303, 238 224.279, 238 223.035 C 238 220.331, 228.440 218.931, 224.729 221.092 M 306.750 221.080 C 303.310 223.084, 305.114 224, 312.500 224 C 316.651 224, 320 223.569, 320 223.035 C 320 220.340, 310.443 218.929, 306.750 221.080 M 365.223 221.557 C 362.586 223.403, 362.233 228.118, 364.584 230.070 C 365.455 230.793, 368.343 231.385, 371 231.385 C 376.693 231.385, 379 229.813, 379 225.934 C 379 222.384, 375.786 220, 371 220 C 369.045 220, 366.445 220.701, 365.223 221.557 M 152.500 226.777 C 146.926 227.998, 147.596 232.005, 153.372 231.994 C 160.066 231.982, 166.797 228.795, 162.750 227.554 C 160.256 226.789, 154.453 226.349, 152.500 226.777 M 447.500 226.932 C 445.369 227.349, 444.500 228.096, 444.500 229.510 C 444.500 231.270, 445.142 231.488, 450.040 231.398 C 456.137 231.285, 461.345 229.299, 458.910 228.015 C 456.695 226.847, 450.791 226.286, 447.500 226.932 M 110.075 241.420 C 108.775 242.803, 104.515 245.120, 100.606 246.568 C 93.235 249.299, 88 253.592, 88 256.905 C 88 261.368, 96.215 266.209, 97.612 262.569 C 97.964 261.651, 97.516 260.122, 96.597 259.107 C 94.124 256.374, 95.536 254.380, 102.602 250.628 C 106.121 248.760, 108.995 247.291, 108.989 247.365 C 108.983 247.439, 106.808 255.325, 104.156 264.889 L 99.334 282.278 93.313 285.011 C 86.556 288.078, 84 290.975, 84 295.568 C 84 299.769, 86.696 302, 91.773 302 C 97.222 302, 100.399 299.142, 103.444 291.500 C 105.304 286.834, 106.657 285.026, 109.529 283.366 C 111.561 282.192, 114.380 280.075, 115.794 278.660 L 118.365 276.089 121.433 279.589 C 129.077 288.309, 143.040 283.849, 149.690 270.563 C 151.083 267.779, 153.388 263.950, 154.812 262.054 L 157.400 258.609 159.152 265.552 C 160.262 269.949, 160.555 272.845, 159.952 273.448 C 159.429 273.971, 159 275.435, 159 276.700 C 159 279.961, 155.259 279.811, 154 276.500 C 152.930 273.685, 151.781 273.355, 150.101 275.378 C 148.605 277.181, 150.196 281.499, 152.886 282.939 C 155.985 284.597, 160.488 284.190, 163.273 282 C 164.671 280.900, 166.419 279.984, 167.158 279.965 C 167.896 279.945, 169.595 279.322, 170.934 278.581 C 173.215 277.318, 173.466 277.430, 174.934 280.366 C 176.338 283.175, 176.945 283.491, 180.786 283.411 C 184.229 283.340, 185.754 282.662, 188.536 279.965 L 192 276.608 192 279.325 C 192 281.232, 192.724 282.373, 194.426 283.148 C 199.108 285.281, 204.251 280.404, 211.455 267 C 214.502 261.329, 216.906 258.557, 217.410 260.133 C 219.804 267.611, 220.104 269.609, 219.495 274.035 C 218.893 278.411, 218.529 279, 216.425 279 C 214.713 279, 213.861 278.293, 213.411 276.500 C 212.713 273.720, 211.978 273.422, 210.200 275.200 C 208.384 277.016, 208.744 278.835, 211.455 281.545 C 214.514 284.605, 219.708 284.804, 223.273 282 C 224.671 280.900, 226.419 279.998, 227.158 279.996 C 231.583 279.984, 239.632 271.127, 236.805 269.380 C 236.136 268.966, 235.412 269.264, 235.146 270.063 C 234.500 272, 229.405 277, 228.077 277 C 227.485 277, 227 275.382, 227 273.404 C 227 271.426, 226.282 267.339, 225.405 264.321 C 224.528 261.304, 224.031 257.988, 224.302 256.954 C 224.961 254.434, 222.590 252.635, 219.599 253.386 C 216.614 254.135, 212.589 259.156, 207.082 269 C 203.142 276.044, 200.696 279, 198.809 279 C 197.380 279, 197.943 272.667, 200.046 265.076 C 202.226 257.211, 201.843 255.596, 197.935 256.165 C 196.025 256.444, 195.191 257.880, 192.974 264.712 C 190.362 272.758, 189.015 275.269, 186 277.718 C 181.526 281.352, 180.818 276.838, 184.054 265.306 C 185.184 261.280, 185.833 257.538, 185.495 256.992 C 185.158 256.447, 183.774 256, 182.420 256 C 179.727 256, 179.204 256.897, 176.420 266.286 C 175.254 270.214, 173.708 272.910, 171.602 274.683 C 168.740 277.093, 168.476 277.148, 168.189 275.398 C 168.019 274.354, 167.025 270.099, 165.983 265.943 C 164.940 261.787, 164.331 257.450, 164.630 256.306 C 165.881 251.524, 159.837 252.224, 154.927 257.430 C 153.146 259.319, 150.024 263.932, 147.989 267.682 C 143.753 275.492, 139.439 279, 134.075 279 C 129.911 279, 126 276.672, 126 274.193 C 126 272.831, 126.964 272.500, 130.927 272.500 C 134.371 272.500, 136.703 271.868, 138.677 270.398 C 146.891 264.282, 141.985 254.467, 131.681 256.400 C 126.570 257.359, 122.239 261.403, 119.366 267.898 C 118.009 270.968, 115.908 274.540, 114.699 275.835 C 112.622 278.060, 107 281.552, 107 280.618 C 107 280.380, 109.472 271.602, 112.494 261.111 C 115.515 250.621, 118.103 241.466, 118.244 240.769 C 118.396 240.013, 117.274 239.380, 115.469 239.203 C 113.274 238.988, 111.785 239.600, 110.075 241.420 M 256.952 246.750 C 255.621 250.816, 253.699 254.408, 252.121 255.782 C 249.844 257.765, 249.703 258.207, 251.046 259.149 C 252.420 260.112, 252.437 261.009, 251.197 267.180 C 249.557 275.344, 250.233 280.349, 253.262 282.471 C 257.390 285.362, 261.920 284.200, 267.651 278.780 C 270.753 275.846, 270.812 275.834, 271.490 277.969 C 273.247 283.503, 282.950 285.568, 290.688 282.055 C 294.788 280.193, 301 273.142, 301 270.350 C 301 268.075, 299.777 268.808, 295.539 273.624 C 291.922 277.735, 290.916 278.299, 286.485 278.704 C 281.137 279.192, 278.383 277.908, 277.819 274.664 C 277.550 273.119, 278.248 272.796, 282.229 272.625 C 289.960 272.292, 295.187 266.867, 293.656 260.767 C 292.863 257.606, 288.164 255.549, 283.474 256.311 C 277.958 257.206, 274.070 260.665, 271.015 267.394 C 267.689 274.721, 263.215 279.309, 259.858 278.834 C 256.725 278.390, 256.407 275.542, 258.525 266.899 C 260.188 260.110, 260.268 260, 263.501 260 C 265.581 260, 267.010 259.417, 267.396 258.410 C 268.263 256.152, 267.265 255, 264.441 255 C 261.490 255, 261.480 254.825, 264.010 247.472 C 266.169 241.197, 265.756 240.047, 261.332 240.015 C 259.535 240.003, 258.783 241.159, 256.952 246.750 M 190.250 247.319 C 187.527 251.318, 187.463 252, 189.813 252 C 191.812 252, 197 247.088, 197 245.195 C 197 242.630, 192.472 244.055, 190.250 247.319 M 324.200 257.615 C 316.676 261.452, 310.664 272.481, 312.722 278.674 C 314.793 284.908, 321.882 285.479, 327.152 279.837 L 330 276.788 330 279.359 C 330 284.288, 336.252 284.797, 341.248 280.275 C 342.864 278.813, 343 278.852, 343 280.786 C 343 283.407, 344.457 284.353, 347.367 283.623 C 349.232 283.155, 349.928 281.753, 351.402 275.503 C 352.776 269.676, 353.969 267.115, 356.621 264.304 C 361.953 258.649, 362.826 260.766, 360 272.500 C 357.489 282.925, 357.876 284.750, 362.359 283.625 C 364.545 283.076, 365.080 282.028, 366.556 275.391 C 368.274 267.669, 372.467 261, 375.604 261 C 377.375 261, 377.351 263.105, 375.500 270 C 373.269 278.313, 373.516 281.822, 376.426 283.148 C 379.605 284.597, 382.982 283.672, 386.531 280.384 C 388.475 278.582, 389.543 278.129, 389.828 278.984 C 390.594 281.282, 393.966 284, 396.050 284 C 399.087 284, 403.772 281.292, 405.149 278.740 C 406.339 276.534, 406.370 276.548, 407.191 279.686 C 408.211 283.587, 410.920 284.610, 414.850 282.578 C 418.587 280.645, 425 273.216, 425 270.820 C 425 268.304, 423.307 268.540, 421.913 271.250 C 420.171 274.637, 415.816 279, 414.177 279 C 413.007 279, 412.877 278.086, 413.500 274.250 C 414.929 265.459, 414.725 263.532, 412.329 263.191 C 410.540 262.936, 409.625 264, 407.120 269.249 C 403.722 276.369, 400.833 279.534, 398.537 278.653 C 394.918 277.264, 398.011 267.045, 403.344 262.772 C 405.853 260.762, 411.766 260.481, 415.525 262.193 C 417.660 263.166, 418.312 263.120, 419.056 261.943 C 420.462 259.721, 420.249 259.346, 416.599 257.614 C 409.849 254.411, 400.614 256.385, 395.363 262.153 C 394.187 263.444, 392.225 266.525, 391.003 269 C 387.121 276.858, 381 281.831, 381 277.126 C 381 276.095, 381.617 273.501, 382.372 271.363 C 384.912 264.163, 385.298 259.441, 383.493 257.636 C 381.065 255.208, 376.592 255.631, 373.034 258.624 C 371.319 260.068, 369.822 261.080, 369.708 260.874 C 369.593 260.668, 369.004 259.600, 368.398 258.500 C 366.895 255.772, 363.266 255.434, 360.114 257.727 C 355.695 260.941, 355.348 261.013, 355.426 258.700 C 355.486 256.920, 354.944 256.500, 352.588 256.500 C 349.823 256.500, 349.542 256.914, 347.040 264.698 C 344.431 272.810, 342.298 276.235, 338.634 278.196 C 335.660 279.788, 335.092 277.521, 336.783 270.809 C 338.075 265.681, 338.092 264.672, 336.898 263.916 C 333.901 262.018, 332.346 263.052, 330.121 268.422 C 327.633 274.425, 323.925 279, 321.548 279 C 319.442 279, 319.488 272.881, 321.627 268.374 C 324.848 261.585, 330.259 259.518, 337.734 262.221 C 340.554 263.241, 341.259 263.199, 342.022 261.971 C 344.835 257.436, 331.124 254.086, 324.200 257.615 M 129.452 263.646 C 126.298 267.049, 126.316 269, 129.500 269 C 132.503 269, 136 265.772, 136 263 C 136 260.092, 132.418 260.446, 129.452 263.646 M 280.633 264.025 C 277.376 267.895, 277.322 269, 280.389 269 C 285.359 269, 289.937 261.848, 285.383 261.198 C 284.001 261.001, 282.351 261.983, 280.633 264.025 M 92.077 290.589 C 88.791 293.354, 88.306 294.906, 90.153 296.753 C 91.882 298.482, 94.912 296.456, 96.585 292.452 C 97.363 290.589, 98 288.825, 98 288.532 C 98 287.160, 94.852 288.253, 92.077 290.589" stroke="none" fill="#044cac" fill-rule="evenodd"/>
</svg>
